# xmcd
#
# Track frame offsets: 
#        150
#        17149
#        35387
#        52712
#        71753
#        89985
#        110739
#        128034
#        144020
#        159381
#        179870
#        198286
#        216203
#        231386
#        261067
#
# Disc length: 3824 seconds
#
# Revision: 0
# Processed by: cddbd v1.5.2PL0 Copyright (c) Steve Scherf et al.
# Submitted via: ExactAudioCopy v1.0b1
#
DISCID=da0eee0f
DTITLE=Frankie J - The One
DYEAR=2005
DGENRE=R&B
TTITLE0=Obsession (No Es Amor) (feat. Baby Bash)
TTITLE1=The One (feat. 3LW)
TTITLE2=How to Deal
TTITLE3=Without You
TTITLE4=On the Floor (feat. Paul Wall)
TTITLE5=Story of My Life
TTITLE6=#1 Fan
TTITLE7=Just Can't Say It's Love
TTITLE8=In the Moment
TTITLE9=Gone
TTITLE10=Don't Wanna Try
TTITLE11=Suga Suga (Baby Bash feat. Frankie J)
TTITLE12=Obsession (No Es Amor) (Spanish Version)
TTITLE13=Situated
TTITLE14=DATA (Video)
EXTD=
EXTT0=
EXTT1=
EXTT2=
EXTT3=
EXTT4=
EXTT5=
EXTT6=
EXTT7=
EXTT8=
EXTT9=
EXTT10=
EXTT11=
EXTT12=
EXTT13=
EXTT14=
PLAYORDER=
